<svg version="1.1" id="Layer_1" xmlns="http://www.w3.org/2000/svg" xmlns:xlink="http://www.w3.org/1999/xlink" x="0px" y="0px"
	 width="100%" viewBox="0 0 277 336" enable-background="new 0 0 277 336" xml:space="preserve">
<path fill="#000000" opacity="1.000000" stroke="none" 
	d="
M181.000000,337.000000 
	C120.666695,337.000000 60.833382,337.000000 1.000056,337.000000 
	C1.000037,225.000076 1.000037,113.000145 1.000019,1.000161 
	C93.333221,1.000108 185.666443,1.000108 277.999756,1.000054 
	C277.999817,112.999847 277.999817,224.999695 277.999908,336.999756 
	C245.833328,337.000000 213.666672,337.000000 181.000000,337.000000 
M43.001175,245.008545 
	C43.001175,245.008545 43.032749,244.983871 42.881802,244.381287 
	C42.237492,243.983383 41.593182,243.585464 40.920803,243.073227 
	C40.920803,243.073227 40.817230,243.017288 40.735405,242.333542 
	C39.286385,241.766373 36.845173,240.381790 36.537670,240.755051 
	C32.153519,246.076630 28.536848,242.836029 24.501955,239.338211 
	C22.602657,241.475891 21.061045,243.669296 19.080109,245.342621 
	C15.282290,248.550659 18.222126,250.448746 20.210115,252.550095 
	C22.422615,254.888733 24.575054,256.491547 27.541868,253.175766 
	C28.851198,251.712433 31.083973,251.075348 33.007072,250.749588 
	C34.186447,252.191238 35.365826,253.632904 36.961353,255.583252 
	C39.001453,251.577332 44.880928,251.456070 43.672752,245.515305 
	C43.501408,245.270752 43.278954,245.088562 43.001175,245.008545 
M151.322617,298.878845 
	C150.788712,299.637909 150.254807,300.396973 149.864807,301.499054 
	C149.864807,301.499054 149.951797,301.860748 149.279449,302.022003 
	C147.825150,303.656464 146.370850,305.290924 144.934235,306.981720 
	C144.934235,306.981720 144.975113,306.939148 144.484970,307.126251 
	C144.299744,307.413666 144.114517,307.701080 143.574875,308.338013 
	C143.351822,308.587860 143.173157,308.866211 142.295975,309.100647 
	C138.899460,311.397766 136.009048,311.247681 133.790451,307.426422 
	C133.383209,306.725006 132.646042,306.223175 132.172516,305.550812 
	C129.710632,302.055084 127.368332,303.000366 125.075157,305.711395 
	C124.367935,306.547455 123.730354,307.442444 123.072960,308.294800 
	C114.534927,302.341339 116.567284,302.691498 107.054848,310.922852 
	C108.426880,312.488403 109.854340,314.012024 111.162361,315.632080 
	C113.715904,318.794708 116.082230,319.987244 118.687958,315.588745 
	C119.422394,314.349030 120.940758,313.573761 122.054764,312.623657 
	C123.952248,314.823303 125.486046,316.601379 127.322723,318.730560 
	C130.201782,314.596497 132.865677,314.937073 136.000443,317.503265 
	C137.315353,318.579681 139.402161,318.713165 141.679138,319.643341 
	C143.885452,320.741547 145.823563,323.836334 148.642197,321.395935 
	C154.149811,316.627411 158.854080,311.272217 160.026901,303.616547 
	C160.312973,301.749237 161.403595,300.005157 162.888870,298.088623 
	C167.268066,297.653168 171.647263,297.217712 176.848373,296.904327 
	C179.575394,296.456085 182.319122,295.555450 185.025864,295.655579 
	C190.352081,295.852509 195.657730,296.605255 201.563980,297.590668 
	C203.691589,297.337891 205.819199,297.085114 208.549194,296.842621 
	C208.748932,296.863495 208.948669,296.884369 209.268692,297.150787 
	C209.268692,297.150787 209.628113,297.217773 209.628113,297.217773 
	C209.628113,297.217773 209.878922,296.917145 210.506348,296.888519 
	C210.715576,296.895905 210.924805,296.903320 211.258118,297.147705 
	C211.258118,297.147705 211.608917,297.203400 211.608917,297.203400 
	C211.608917,297.203400 211.831558,296.895630 212.446960,296.816010 
	C212.653534,296.805542 212.860107,296.795044 213.640701,297.347809 
	C217.094482,297.194305 220.548264,297.040771 224.023956,296.928589 
	C224.023956,296.928589 224.067474,296.945740 224.224487,297.221100 
	C224.224487,297.221100 224.642288,297.302246 224.642288,297.302246 
	C224.642288,297.302246 224.953156,296.965942 225.486710,297.019897 
	C225.652481,297.086823 225.818237,297.153717 226.434753,297.662750 
	C229.072525,297.060852 231.214096,296.163513 229.492767,292.306274 
	C229.657120,291.577057 229.821472,290.847809 230.787308,289.722321 
	C231.111725,271.755707 231.464005,253.789444 231.679474,235.821518 
	C231.690399,234.910355 230.522125,233.985031 229.275543,233.013138 
	C228.526047,233.332336 227.776550,233.651535 226.293823,234.006866 
	C224.795593,234.695908 223.343384,235.520081 221.790588,236.048935 
	C216.908966,237.711456 215.283340,240.490723 216.614105,245.880310 
	C217.852432,250.895477 217.613144,256.276489 218.013184,261.497314 
	C218.328186,265.608185 218.493393,269.735504 218.961029,273.828583 
	C219.780014,280.997345 218.422913,283.017548 211.423874,283.584045 
	C209.476791,283.741638 207.444168,282.842255 205.380402,282.413116 
	C210.192612,270.489532 209.963867,263.463440 196.585861,257.545197 
	C192.783066,257.426483 188.974304,257.140564 185.180542,257.275604 
	C183.766251,257.325958 182.386978,258.359802 180.285400,259.266083 
	C173.793213,260.853302 169.186111,266.472260 171.146820,271.499054 
	C172.201553,274.203125 175.320847,276.080231 177.421616,278.408936 
	C178.236115,279.311768 179.605804,280.938904 179.340912,281.353729 
	C178.632065,282.463593 177.242920,283.658020 176.002396,283.807281 
	C172.886688,284.182068 169.702408,283.953125 166.548294,284.051849 
	C163.366928,284.151428 162.222275,282.365906 161.804428,279.505890 
	C161.344635,276.358826 160.602081,273.253082 159.948105,269.954773 
	C156.551147,271.428101 154.074051,272.647614 151.495697,273.590179 
	C146.329147,275.478882 146.230270,276.388367 148.567902,281.542358 
	C150.494446,285.789978 151.525146,290.443878 152.490189,295.274994 
	C152.270508,296.484436 152.050827,297.693878 151.888214,298.941498 
	C151.888214,298.941498 151.914597,298.878113 151.322617,298.878845 
M87.966698,304.880127 
	C87.966698,304.880127 87.899002,304.862885 87.200432,304.906067 
	C85.741920,306.234528 84.283401,307.563019 82.886795,308.857727 
	C82.886795,308.857727 82.845718,308.800415 82.027100,308.822479 
	C75.692635,310.803802 73.857712,303.488892 69.768761,302.306396 
	C66.522957,303.552002 66.032509,309.281311 61.996277,306.068024 
	C57.948788,302.845825 55.102074,303.284027 52.226700,307.225586 
	C51.210800,308.618164 49.983353,309.856445 48.862591,311.153503 
	C50.909489,313.370697 52.510921,316.611298 54.646511,317.013153 
	C56.981525,317.452515 59.762119,315.101685 62.450191,314.313934 
	C63.400497,314.035431 64.870979,314.489929 65.708885,315.128296 
	C66.806190,315.964325 67.512009,317.314209 68.612358,318.735077 
	C72.077164,315.724884 74.899132,313.273193 77.244759,311.235352 
	C79.817314,312.104858 81.874115,312.800049 84.510567,313.755920 
	C84.708809,313.830627 84.907051,313.905334 85.415009,314.460602 
	C85.942444,314.661011 86.469887,314.861389 87.398170,315.496765 
	C89.364708,315.710693 91.862045,316.803375 93.208221,315.990265 
	C99.933968,311.927673 104.152412,305.794647 106.747681,297.945892 
	C112.783585,297.881683 118.822594,297.898956 124.852188,297.669342 
	C125.806335,297.633026 126.718086,296.483154 127.761833,295.771423 
	C127.761833,295.771423 127.856888,295.674103 128.457092,295.514008 
	C128.905777,294.664825 129.354446,293.815674 130.083862,292.444031 
	C134.480377,281.172211 132.294708,270.530518 127.554802,259.830383 
	C120.797546,264.847870 115.902031,269.810242 121.871040,278.073059 
	C122.428375,278.844574 121.606651,281.841248 121.205048,281.887360 
	C116.987289,282.371735 112.697235,282.763153 108.501045,282.377136 
	C107.791451,282.311890 107.392265,278.442657 106.920265,276.315277 
	C106.005814,272.193787 105.783943,267.713928 102.348457,265.778503 
	C90.183449,269.118500 93.608849,276.808655 95.724144,284.123749 
	C96.180397,285.701538 96.842682,287.275696 96.951561,288.882599 
	C97.065941,290.570862 97.102455,292.553467 96.340485,293.954742 
	C94.475700,297.384216 92.130974,300.552734 89.388855,303.967163 
	C88.908852,304.294006 88.428841,304.620850 87.966698,304.880127 
M33.063545,296.052887 
	C33.063545,296.052887 33.101177,296.066467 33.664829,295.752869 
	C35.039505,295.254028 36.414181,294.755219 37.896908,294.651886 
	C37.896908,294.651886 37.960518,295.056885 37.927250,295.675568 
	C41.629616,299.257965 45.799980,297.640381 50.553753,296.794403 
	C50.768620,296.823425 50.983486,296.852417 51.285923,297.120117 
	C51.285923,297.120117 51.609661,297.183105 51.609661,297.183105 
	C51.609661,297.183105 51.802685,296.880768 52.453022,297.169312 
	C52.633553,297.323090 52.814079,297.476898 53.547848,297.989288 
	C55.007126,297.587280 56.466404,297.185272 58.550789,296.815735 
	C58.757725,296.842407 58.964664,296.869080 59.275410,297.138489 
	C59.275410,297.138489 59.616592,297.202728 59.616592,297.202728 
	C59.616592,297.202728 59.834614,296.897583 60.412228,297.082886 
	C60.583912,297.189667 60.755600,297.296478 61.439598,297.845276 
	C62.948605,297.491669 64.457611,297.138062 66.856079,296.907288 
	C70.156517,296.907288 73.456955,296.907288 77.119934,296.907288 
	C77.638832,294.631348 78.282082,291.810059 79.233299,288.345459 
	C81.177467,282.212341 83.687691,276.067078 78.918480,269.349854 
	C78.317543,266.483734 77.716599,263.617615 77.115646,260.751495 
	C75.213379,261.740814 73.315559,262.738861 71.406616,263.715149 
	C70.667702,264.093048 69.611748,264.219452 69.203239,264.808960 
	C67.711876,266.961273 64.534531,268.307922 67.263840,272.190948 
	C69.149994,274.874420 69.272285,278.797699 70.381996,282.904083 
	C62.901772,282.904083 56.603409,283.000336 50.313919,282.807220 
	C49.292122,282.775879 47.535675,281.559814 47.431358,280.726959 
	C46.589939,274.008820 46.108028,267.246643 45.407471,260.509216 
	C45.234673,258.847351 44.662724,257.226959 44.258381,255.520462 
	C39.876816,258.673737 36.447899,260.994232 33.195782,263.540558 
	C31.427465,264.925079 30.200804,267.633392 28.312458,268.117920 
	C21.823889,269.782776 18.859879,275.034912 15.898755,279.903595 
	C10.964506,288.016388 16.261030,296.802124 25.658165,297.036438 
	C27.442112,297.080902 29.213417,297.632416 31.546396,297.786316 
	C32.054680,297.221588 32.562962,296.656860 33.063545,296.052887 
M128.645981,224.894043 
	C129.050964,224.246231 129.455948,223.598419 130.071381,222.402634 
	C134.572968,212.914108 133.321472,200.007721 126.997406,195.834778 
	C125.177261,197.811615 122.416145,199.594574 121.614311,202.024170 
	C120.816582,204.441315 121.418213,207.734131 122.415260,210.241806 
	C124.364624,215.144669 121.501839,214.601456 118.813805,214.826462 
	C117.660133,209.528076 116.623482,204.767090 115.590538,200.023163 
	C106.828987,201.575882 106.633446,201.955246 108.569016,213.043991 
	C103.326553,215.752991 101.839600,215.020355 101.316338,209.397690 
	C101.065033,206.697235 100.919685,203.986923 100.657066,200.311295 
	C96.928665,202.494385 94.068230,204.169250 91.759666,205.520981 
	C90.047379,209.011276 96.905251,213.961533 88.504654,215.263046 
	C88.325035,215.282074 88.145424,215.301086 87.064888,215.270111 
	C84.054230,215.276291 81.043564,215.282455 77.348587,215.190933 
	C76.890144,215.223785 76.431709,215.256638 75.290710,215.235397 
	C74.837341,215.183502 74.383965,215.131622 73.766678,214.826721 
	C73.463486,214.655136 73.226402,214.735641 72.534065,215.174866 
	C72.359108,215.204102 72.184151,215.233337 71.341743,215.102081 
	C69.902596,215.129257 68.463455,215.156433 66.352676,215.225235 
	C65.904526,215.244583 65.456375,215.263931 64.522560,215.122116 
	C64.356636,215.082565 64.190712,215.043015 63.525043,214.424606 
	C59.181393,214.215881 57.743557,212.073547 57.969204,207.673050 
	C58.222332,202.736572 57.505020,197.750320 57.209934,192.785736 
	C56.521175,192.439346 55.832417,192.092957 55.143658,191.746567 
	C49.566998,195.225922 44.056084,198.816666 38.397449,202.157150 
	C30.907953,206.578445 27.535654,212.803574 29.090494,220.876846 
	C29.381712,222.388977 31.169167,224.273972 32.669922,224.773270 
	C38.066811,226.568848 43.649918,228.030197 48.104614,223.648331 
	C49.822144,224.692642 51.033138,225.428970 52.817665,226.382034 
	C54.438595,226.552933 56.069405,226.933350 57.678699,226.857468 
	C63.776279,226.569931 69.866890,226.134537 76.557510,225.774933 
	C76.754936,225.801834 76.952354,225.828720 77.265251,226.098999 
	C77.265251,226.098999 77.616440,226.158524 77.616440,226.158524 
	C77.616440,226.158524 77.840042,225.848419 78.481705,226.020767 
	C78.673950,226.130737 78.866188,226.240692 79.642860,226.723923 
	C94.366356,226.801483 109.090080,226.931747 123.812996,226.870529 
	C125.199890,226.864761 126.581764,225.653961 127.999916,225.004807 
	C127.999916,225.004807 128.024673,224.981476 128.645981,224.894043 
M251.873566,290.957397 
	C252.248825,290.334808 252.953186,289.710785 252.950424,289.089874 
	C252.901978,278.209320 252.767059,267.329163 252.734528,255.458694 
	C252.813431,248.803055 253.020996,242.143570 252.823364,235.496155 
	C252.795837,234.569962 250.317368,232.709808 249.749725,232.970718 
	C246.200821,234.602020 242.710159,236.490585 239.560303,238.787704 
	C238.478363,239.576752 237.920853,241.807419 237.991379,243.339539 
	C238.539688,255.251617 239.134430,267.166809 240.059128,279.054260 
	C240.585129,285.816315 241.757736,292.528107 242.827469,300.701050 
	C246.230560,296.704803 248.651321,293.862091 251.873566,290.957397 
M126.249252,176.643219 
	C133.288986,179.820221 140.599014,178.061966 145.964600,172.631912 
	C150.431335,168.111511 154.977386,163.359375 160.334930,160.102615 
	C168.203323,155.319550 176.807373,151.738495 185.139618,147.731888 
	C187.489136,146.602127 189.931549,145.122086 192.421371,144.921844 
	C203.068390,144.065598 213.743378,143.391586 224.419800,143.134201 
	C230.002899,142.999619 230.966843,142.504669 229.799545,136.718597 
	C227.137146,123.521538 224.386688,110.340309 221.475845,97.196083 
	C219.981705,90.449081 218.801483,89.585304 213.076874,90.391495 
	C199.168640,92.350197 185.509048,94.602844 172.818832,101.677452 
	C162.863266,107.227570 153.147522,112.672928 145.790298,121.554054 
	C143.108551,124.791267 140.597229,128.172653 137.849915,131.351501 
	C136.044510,133.440475 133.941956,135.447281 131.403503,132.129745 
	C123.025795,121.180794 113.490181,111.366959 101.569229,104.353516 
	C95.626709,100.857361 89.111549,98.082451 82.536133,95.979691 
	C74.789047,93.502228 66.758080,91.719215 58.722446,90.433525 
	C55.561363,89.927750 49.930157,90.616165 49.105541,92.432373 
	C46.668461,97.800064 46.015057,103.990654 44.763988,109.880592 
	C43.056866,117.917603 41.451008,125.976089 39.783302,134.021545 
	C39.142166,137.114563 38.450375,140.197083 37.627769,143.994904 
	C73.612122,138.939041 102.084038,151.087204 126.249252,176.643219 
M138.872192,38.398247 
	C140.530258,36.888947 142.188324,35.379646 143.846390,33.870346 
	C142.211761,32.844952 140.825989,33.009220 139.448792,32.955082 
	C137.474182,32.877453 134.621078,33.363129 133.749512,32.296108 
	C132.548462,30.825747 132.387070,28.074554 132.645309,25.978611 
	C132.856812,24.261885 134.332809,22.700954 135.440277,20.729036 
	C130.929367,20.354866 128.667725,22.047121 127.057121,25.743752 
	C124.103188,32.523525 126.834488,36.965870 132.503845,40.293095 
	C131.565933,41.790802 130.251938,42.921928 130.281952,44.016190 
	C130.386459,47.825924 127.874283,49.089954 125.238808,51.032547 
	C117.284225,56.895802 109.558182,63.100334 102.055740,69.536331 
	C95.555649,75.112457 92.489326,82.624535 92.075150,91.106239 
	C92.000069,92.643768 92.730560,95.018044 93.866783,95.688843 
	C101.676170,100.299301 110.537086,102.984566 116.818039,110.312889 
	C120.956047,115.140923 126.587128,118.664253 130.967392,123.319656 
	C133.354370,125.856575 134.844543,126.379082 137.303238,123.959908 
	C141.469864,119.860245 145.378128,115.399780 149.996140,111.879623 
	C157.331177,106.288361 164.927902,100.944283 172.894516,96.324371 
	C176.137802,94.443558 177.569809,92.411446 176.840836,89.375900 
	C174.849869,81.085182 171.549362,73.057709 164.979095,67.529236 
	C157.244614,61.021145 148.629852,55.552681 140.338196,49.716686 
	C137.243668,47.538635 136.038681,41.572887 138.872192,38.398247 
M195.995239,214.907455 
	C194.980164,213.455292 193.119003,212.013245 193.101532,210.549194 
	C193.037659,205.197083 190.625809,201.040848 186.966309,197.700607 
	C183.798645,194.809280 180.011292,192.596832 176.517502,190.098373 
	C171.178146,197.001923 171.161484,200.914261 175.881714,203.932709 
	C178.032074,205.307785 180.136841,206.869766 181.892883,208.701187 
	C182.896454,209.747833 184.037811,212.141693 183.559204,212.805206 
	C182.707916,213.985382 180.661880,214.910995 179.135635,214.882126 
	C174.719482,214.798660 170.313309,214.187729 165.861633,213.780029 
	C163.015503,222.955948 165.965118,228.311401 173.925476,227.909088 
	C185.131241,227.342758 196.333176,226.679779 207.525879,225.902008 
	C209.029160,225.797531 210.437256,224.678787 211.946976,224.218414 
	C213.695221,223.685303 215.574539,222.841431 217.276169,223.062439 
	C220.122559,223.432098 222.920441,224.404297 225.655334,225.361282 
	C234.504425,228.457687 236.593918,227.461227 239.319061,218.598572 
	C242.014511,209.832550 239.017334,199.478714 232.524948,195.127960 
	C228.642929,192.526505 224.224655,192.723892 221.193909,196.085541 
	C219.015930,198.501343 216.844925,201.142456 215.521515,204.067886 
	C211.819550,212.251099 206.141739,216.534790 195.995239,214.907455 
M47.451115,152.674973 
	C46.278008,155.937851 45.104900,159.200714 43.347221,164.089523 
	C66.264580,156.377808 87.273430,160.760025 108.931786,168.936050 
	C107.736984,166.732376 107.286034,164.767334 106.054764,163.852264 
	C102.949028,161.544113 99.657639,159.339462 96.140976,157.760941 
	C88.789917,154.461243 81.477287,150.399185 73.713661,148.891815 
	C66.415611,147.474869 58.551346,148.830185 50.953243,149.264084 
	C49.862621,149.326370 48.867687,151.064316 47.451115,152.674973 
M176.590912,155.036346 
	C168.331192,158.822632 161.263458,164.203766 155.097519,170.959167 
	C156.878815,171.068558 158.458145,170.800278 159.786926,170.073730 
	C169.860321,164.565750 180.409256,160.234146 191.998871,160.141464 
	C200.899841,160.070251 209.806351,161.307907 218.721558,161.725204 
	C220.026016,161.786270 222.306030,160.779343 222.573166,159.828079 
	C223.773911,155.552246 218.259796,148.754105 213.805344,149.070190 
	C205.520279,149.658096 197.008789,147.106857 188.948547,151.679199 
	C185.572220,153.594513 181.211761,153.775009 176.590912,155.036346 
M159.010162,212.890610 
	C158.496323,206.488800 159.496567,199.711014 153.914444,193.842850 
	C150.911880,197.061859 147.964310,200.221924 145.055298,203.340652 
	C152.737015,213.084412 152.763870,225.942856 141.251495,231.439987 
	C137.707520,233.132217 134.107758,234.707672 130.284424,236.450134 
	C131.824539,237.534409 132.876358,238.193481 133.838120,238.964844 
	C141.564087,245.161285 150.811035,243.311249 154.576813,234.966232 
	C157.635742,228.187607 160.709442,221.480988 159.010162,212.890610 
M51.089489,189.387665 
	C52.646667,188.105865 54.203846,186.824066 56.062965,185.293732 
	C52.127308,182.229401 50.028606,176.413208 44.276894,181.562592 
	C43.618160,182.152344 41.240868,181.545715 40.140675,180.792404 
	C35.677490,177.736465 33.146416,181.774948 31.203962,183.901367 
	C28.359079,187.015671 32.996632,187.873306 34.368317,189.730789 
	C34.955273,190.525620 35.610252,191.270203 36.430023,192.278290 
	C38.539688,190.404434 40.323589,188.819931 41.864429,187.451324 
	C45.155418,187.901596 46.492191,193.687515 51.089489,189.387665 
M95.827400,247.483398 
	C94.852623,248.542511 94.068016,249.993744 92.863014,250.578156 
	C90.437218,251.754593 88.607483,253.899109 90.141457,255.835007 
	C92.109062,258.318176 95.646133,261.515961 98.054115,261.178101 
	C100.834091,260.788055 104.226746,257.295532 105.312286,254.388077 
	C106.409393,251.449692 100.097679,246.826584 95.827400,247.483398 
M160.563690,262.010406 
	C163.128799,255.678299 158.054169,253.429626 155.291672,250.882492 
	C152.336441,253.728088 149.619247,256.344482 146.533966,259.315308 
	C148.440353,261.398163 150.858597,264.040283 153.751770,267.201324 
	C155.956741,265.478058 157.944717,263.924377 160.563690,262.010406 
z"/>
<path fill="#5D2328" opacity="1.000000" stroke="none" 
	d="
M126.005890,176.334732 
	C102.084038,151.087204 73.612122,138.939041 37.627769,143.994904 
	C38.450375,140.197083 39.142166,137.114563 39.783302,134.021545 
	C41.451008,125.976089 43.056866,117.917603 44.763988,109.880592 
	C46.015057,103.990654 46.668461,97.800064 49.105541,92.432373 
	C49.930157,90.616165 55.561363,89.927750 58.722446,90.433525 
	C66.758080,91.719215 74.789047,93.502228 82.536133,95.979691 
	C89.111549,98.082451 95.626709,100.857361 101.569229,104.353516 
	C113.490181,111.366959 123.025795,121.180794 131.403503,132.129745 
	C133.941956,135.447281 136.044510,133.440475 137.849915,131.351501 
	C140.597229,128.172653 143.108551,124.791267 145.790298,121.554054 
	C153.147522,112.672928 162.863266,107.227570 172.818832,101.677452 
	C185.509048,94.602844 199.168640,92.350197 213.076874,90.391495 
	C218.801483,89.585304 219.981705,90.449081 221.475845,97.196083 
	C224.386688,110.340309 227.137146,123.521538 229.799545,136.718597 
	C230.966843,142.504669 230.002899,142.999619 224.419800,143.134201 
	C213.743378,143.391586 203.068390,144.065598 192.421371,144.921844 
	C189.931549,145.122086 187.489136,146.602127 185.139618,147.731888 
	C176.807373,151.738495 168.203323,155.319550 160.334930,160.102615 
	C154.977386,163.359375 150.431335,168.111511 145.964600,172.631912 
	C140.599014,178.061966 133.288986,179.820221 126.005890,176.334732 
M217.965210,129.042389 
	C215.958389,121.498482 213.159866,114.053566 212.200317,106.378723 
	C211.459518,100.453514 208.417221,100.635971 204.427521,101.123718 
	C194.904999,102.287910 185.845291,105.175018 177.287811,109.398140 
	C165.802567,115.066139 156.058167,123.175522 147.649124,132.718353 
	C138.783676,142.779129 138.868576,145.630005 146.443314,155.307144 
	C146.618805,155.531342 147.014160,155.583481 147.481506,155.794800 
	C152.278259,152.419403 156.812286,148.319016 162.087585,145.727707 
	C170.215927,141.734924 178.748291,138.477844 187.312805,135.492645 
	C192.363235,133.732269 197.806244,133.098267 203.997650,131.969666 
	C208.104599,132.017990 212.214706,132.156326 216.314880,132.012131 
	C216.892441,131.991821 217.421448,130.591034 217.965210,129.042389 
M50.364262,127.766235 
	C50.202431,129.114655 50.040604,130.463074 49.782452,132.614075 
	C54.639847,132.048325 58.879154,131.554550 63.907101,130.997910 
	C71.757271,132.870789 79.666908,134.527939 87.442451,136.671539 
	C97.018799,139.311584 104.975899,145.063019 112.905876,150.779327 
	C115.771362,152.844910 118.663712,154.873215 121.243851,156.705521 
	C123.013641,153.988937 124.800102,151.594864 126.185532,148.987686 
	C126.997429,147.459808 128.075974,145.124756 127.473877,143.958557 
	C124.859566,138.894974 122.406036,133.409958 118.514137,129.426254 
	C113.105240,123.889778 106.774353,119.083961 100.280457,114.813385 
	C87.215912,106.221748 73.257713,99.964355 56.827473,102.121552 
	C54.833527,110.388580 52.800858,118.816162 50.364262,127.766235 
z"/>
<path fill="#5E2126" opacity="1.000000" stroke="none" 
	d="
M138.604736,38.629478 
	C136.038681,41.572887 137.243668,47.538635 140.338196,49.716686 
	C148.629852,55.552681 157.244614,61.021145 164.979095,67.529236 
	C171.549362,73.057709 174.849869,81.085182 176.840836,89.375900 
	C177.569809,92.411446 176.137802,94.443558 172.894516,96.324371 
	C164.927902,100.944283 157.331177,106.288361 149.996140,111.879623 
	C145.378128,115.399780 141.469864,119.860245 137.303238,123.959908 
	C134.844543,126.379082 133.354370,125.856575 130.967392,123.319656 
	C126.587128,118.664253 120.956047,115.140923 116.818039,110.312889 
	C110.537086,102.984566 101.676170,100.299301 93.866783,95.688843 
	C92.730560,95.018044 92.000069,92.643768 92.075150,91.106239 
	C92.489326,82.624535 95.555649,75.112457 102.055740,69.536331 
	C109.558182,63.100334 117.284225,56.895802 125.238808,51.032547 
	C127.874283,49.089954 130.386459,47.825924 130.281952,44.016190 
	C130.251938,42.921928 131.565933,41.790802 132.503845,40.293095 
	C126.834488,36.965870 124.103188,32.523525 127.057121,25.743752 
	C128.667725,22.047121 130.929367,20.354866 135.440277,20.729036 
	C134.332809,22.700954 132.856812,24.261885 132.645309,25.978611 
	C132.387070,28.074554 132.548462,30.825747 133.749512,32.296108 
	C134.621078,33.363129 137.474182,32.877453 139.448792,32.955082 
	C140.825989,33.009220 142.211761,32.844952 143.846390,33.870346 
	C142.188324,35.379646 140.530258,36.888947 138.604736,38.629478 
M124.376350,105.328888 
	C126.424377,107.222458 128.343719,109.289146 130.569458,110.943665 
	C131.872147,111.912041 134.406555,113.197418 135.107971,112.662666 
	C138.326263,110.209091 141.273148,107.316368 143.897598,104.224884 
	C144.562775,103.441345 144.243195,100.798485 143.414474,99.956673 
	C140.618240,97.116226 137.389359,94.701675 134.071426,91.910141 
	C129.768906,95.760071 123.679184,97.590660 124.376350,105.328888 
z"/>
<path fill="#5D2127" opacity="1.000000" stroke="none" 
	d="
M149.951797,301.860748 
	C149.951797,301.860748 149.864807,301.499054 150.101166,301.198975 
	C150.863220,300.225281 151.388901,299.551697 151.914581,298.878113 
	C151.914597,298.878113 151.888214,298.941498 152.161285,298.833008 
	C152.607193,297.455597 152.780014,296.186676 152.952850,294.917755 
	C151.525146,290.443878 150.494446,285.789978 148.567902,281.542358 
	C146.230270,276.388367 146.329147,275.478882 151.495697,273.590179 
	C154.074051,272.647614 156.551147,271.428101 159.948105,269.954773 
	C160.602081,273.253082 161.344635,276.358826 161.804428,279.505890 
	C162.222275,282.365906 163.366928,284.151428 166.548294,284.051849 
	C169.702408,283.953125 172.886688,284.182068 176.002396,283.807281 
	C177.242920,283.658020 178.632065,282.463593 179.340912,281.353729 
	C179.605804,280.938904 178.236115,279.311768 177.421616,278.408936 
	C175.320847,276.080231 172.201553,274.203125 171.146820,271.499054 
	C169.186111,266.472260 173.793213,260.853302 181.105103,259.142761 
	C187.003143,258.703888 192.081451,258.388336 197.159775,258.072754 
	C209.963867,263.463440 210.192612,270.489532 205.380402,282.413116 
	C207.444168,282.842255 209.476791,283.741638 211.423874,283.584045 
	C218.422913,283.017548 219.780014,280.997345 218.961029,273.828583 
	C218.493393,269.735504 218.328186,265.608185 218.013184,261.497314 
	C217.613144,256.276489 217.852432,250.895477 216.614105,245.880310 
	C215.283340,240.490723 216.908966,237.711456 221.790588,236.048935 
	C223.343384,235.520081 224.795593,234.695908 226.883026,234.189774 
	C228.240601,234.569305 229.008972,234.765915 229.836334,235.315826 
	C229.863480,236.144073 229.831604,236.619019 229.628052,237.458771 
	C229.304245,245.592484 229.030869,253.361633 229.045898,261.130249 
	C229.054779,265.722626 229.519836,270.314087 229.821762,275.376831 
	C229.904465,280.604645 229.945145,285.361603 229.985825,290.118591 
	C229.821472,290.847809 229.657120,291.577057 229.146545,292.822571 
	C227.861542,294.632782 226.922760,295.926697 225.983978,297.220642 
	C225.818237,297.153717 225.652481,297.086823 224.998642,296.986237 
	C224.510574,296.952576 224.067474,296.945740 224.067474,296.945740 
	C224.067474,296.945740 224.023956,296.928589 223.668716,296.711853 
	C219.897873,296.591583 216.482285,296.688080 213.066681,296.784546 
	C212.860107,296.795044 212.653534,296.805542 211.965302,296.854340 
	C211.483643,296.892670 211.134033,296.910767 211.134033,296.910767 
	C210.924805,296.903320 210.715576,296.895905 210.010468,296.894531 
	C209.514572,296.900513 209.148422,296.905273 209.148422,296.905273 
	C208.948669,296.884369 208.748932,296.863495 207.928207,296.670959 
	C205.195450,296.708923 203.083679,296.918518 200.971893,297.128113 
	C195.657730,296.605255 190.352081,295.852509 185.025864,295.655579 
	C182.319122,295.555450 179.575394,296.456085 176.298096,296.591309 
	C171.730820,296.010162 167.714874,295.640930 163.695511,295.599365 
	C163.180801,295.594055 162.648453,297.294281 162.124298,298.204407 
	C161.403595,300.005157 160.312973,301.749237 160.026901,303.616547 
	C158.854080,311.272217 154.149811,316.627411 148.642197,321.395935 
	C145.823563,323.836334 143.885452,320.741547 141.285553,319.126038 
	C139.298660,316.301178 138.777695,314.192963 141.471085,312.153534 
	C142.281372,311.539978 142.531921,310.187195 143.038910,309.173096 
	C143.173157,308.866211 143.351822,308.587860 143.944916,308.007538 
	C144.560379,307.453766 144.780426,307.207794 144.975113,306.939148 
	C144.975113,306.939148 144.934235,306.981720 145.305786,306.939270 
	C148.836807,306.690460 150.153122,304.919647 149.951797,301.860748 
M197.515793,274.664124 
	C194.888550,270.693542 191.132095,271.543030 186.009842,272.256195 
	C188.445923,275.355530 190.335480,277.759521 192.264893,280.214203 
	C194.458755,278.190674 196.001770,276.767426 197.515793,274.664124 
z"/>
<path fill="#5D2127" opacity="1.000000" stroke="none" 
	d="
M65.008224,215.283295 
	C65.456375,215.263931 65.904526,215.244583 66.972488,215.366089 
	C69.064598,215.425476 70.536888,215.344025 72.009186,215.262573 
	C72.184151,215.233337 72.359108,215.204102 73.013351,215.131577 
	C73.492645,215.088287 73.930595,215.079727 73.930595,215.079727 
	C74.383965,215.131622 74.837341,215.183502 75.824875,215.368561 
	C76.916992,215.430710 77.474945,215.359665 78.032906,215.288635 
	C81.043564,215.282455 84.054230,215.276291 87.644028,215.358185 
	C88.223175,215.446259 88.649376,215.464737 88.649376,215.464737 
	C88.649376,215.464737 89.045197,215.300613 89.045197,215.300613 
	C96.905251,213.961533 90.047379,209.011276 91.759666,205.520981 
	C94.068230,204.169250 96.928665,202.494385 100.657066,200.311295 
	C100.919685,203.986923 101.065033,206.697235 101.316338,209.397690 
	C101.839600,215.020355 103.326553,215.752991 108.569016,213.043991 
	C106.633446,201.955246 106.828987,201.575882 115.590538,200.023163 
	C116.623482,204.767090 117.660133,209.528076 118.813805,214.826462 
	C121.501839,214.601456 124.364624,215.144669 122.415260,210.241806 
	C121.418213,207.734131 120.816582,204.441315 121.614311,202.024170 
	C122.416145,199.594574 125.177261,197.811615 126.997406,195.834778 
	C133.321472,200.007721 134.572968,212.914108 129.706345,222.795135 
	C128.902420,223.785583 128.463547,224.383530 128.024673,224.981476 
	C128.024673,224.981476 127.999916,225.004807 127.518478,224.986374 
	C113.073792,224.973053 99.110054,224.923187 85.147797,225.044067 
	C83.114388,225.061676 81.088036,225.894867 79.058418,226.350662 
	C78.866188,226.240692 78.673950,226.130737 77.988754,225.930573 
	C77.495811,225.840378 77.149780,225.855621 77.149780,225.855621 
	C76.952354,225.828720 76.754936,225.801834 75.894829,225.591339 
	C67.569481,225.660263 59.906811,225.912766 52.244137,226.165283 
	C51.033138,225.428970 49.822144,224.692642 48.104614,223.648331 
	C43.649918,228.030197 38.066811,226.568848 32.669922,224.773270 
	C31.169167,224.273972 29.381712,222.388977 29.090494,220.876846 
	C27.535654,212.803574 30.907953,206.578445 38.397449,202.157150 
	C44.056084,198.816666 49.566998,195.225922 55.143658,191.746567 
	C55.832417,192.092957 56.521175,192.439346 57.209934,192.785736 
	C57.505020,197.750320 58.222332,202.736572 57.969204,207.673050 
	C57.743557,212.073547 59.181393,214.215881 63.459305,214.719330 
	C62.541031,215.104187 61.688492,215.194305 60.835957,215.284439 
	C60.880638,215.555573 60.925316,215.826706 60.969997,216.097855 
	C62.316074,215.826340 63.662148,215.554810 65.008224,215.283295 
M47.867306,213.748566 
	C47.867306,212.067123 47.867306,210.385666 47.867306,208.397797 
	C44.678448,209.660553 42.474327,210.280457 40.565422,211.402557 
	C39.692097,211.915939 39.399963,213.418015 38.844238,214.471680 
	C39.932720,214.922073 41.083557,215.849213 42.095821,215.716812 
	C43.837135,215.489059 45.492088,214.600983 47.867306,213.748566 
z"/>
<path fill="#5D2228" opacity="1.000000" stroke="none" 
	d="
M196.439026,214.935150 
	C206.141739,216.534790 211.819550,212.251099 215.521515,204.067886 
	C216.844925,201.142456 219.015930,198.501343 221.193909,196.085541 
	C224.224655,192.723892 228.642929,192.526505 232.524948,195.127960 
	C239.017334,199.478714 242.014511,209.832550 239.319061,218.598572 
	C236.593918,227.461227 234.504425,228.457687 225.655334,225.361282 
	C222.920441,224.404297 220.122559,223.432098 217.276169,223.062439 
	C215.574539,222.841431 213.695221,223.685303 211.946976,224.218414 
	C210.437256,224.678787 209.029160,225.797531 207.525879,225.902008 
	C196.333176,226.679779 185.131241,227.342758 173.925476,227.909088 
	C165.965118,228.311401 163.015503,222.955948 165.861633,213.780029 
	C170.313309,214.187729 174.719482,214.798660 179.135635,214.882126 
	C180.661880,214.910995 182.707916,213.985382 183.559204,212.805206 
	C184.037811,212.141693 182.896454,209.747833 181.892883,208.701187 
	C180.136841,206.869766 178.032074,205.307785 175.881714,203.932709 
	C171.161484,200.914261 171.178146,197.001923 176.517502,190.098373 
	C180.011292,192.596832 183.798645,194.809280 186.966309,197.700607 
	C190.625809,201.040848 193.037659,205.197083 193.101532,210.549194 
	C193.119003,212.013245 194.980164,213.455292 196.439026,214.935150 
M230.969009,210.023224 
	C226.677155,204.236526 223.936127,204.542984 220.134933,211.774139 
	C223.842056,213.071365 227.455582,214.335831 231.713303,215.825714 
	C231.472107,213.475006 231.326935,212.060211 230.969009,210.023224 
z"/>
<path fill="#5E2228" opacity="1.000000" stroke="none" 
	d="
M30.990553,297.950012 
	C29.213417,297.632416 27.442112,297.080902 25.658165,297.036438 
	C16.261030,296.802124 10.964506,288.016388 15.898755,279.903595 
	C18.859879,275.034912 21.823889,269.782776 28.312458,268.117920 
	C30.200804,267.633392 31.427465,264.925079 33.195782,263.540558 
	C36.447899,260.994232 39.876816,258.673737 44.258381,255.520462 
	C44.662724,257.226959 45.234673,258.847351 45.407471,260.509216 
	C46.108028,267.246643 46.589939,274.008820 47.431358,280.726959 
	C47.535675,281.559814 49.292122,282.775879 50.313919,282.807220 
	C56.603409,283.000336 62.901772,282.904083 70.381996,282.904083 
	C69.272285,278.797699 69.149994,274.874420 67.263840,272.190948 
	C64.534531,268.307922 67.711876,266.961273 69.203239,264.808960 
	C69.611748,264.219452 70.667702,264.093048 71.406616,263.715149 
	C73.315559,262.738861 75.213379,261.740814 77.115646,260.751495 
	C77.716599,263.617615 78.317543,266.483734 78.762383,270.033264 
	C78.730217,273.794220 78.908318,276.870850 78.962669,279.949615 
	C79.015854,282.961517 78.942902,285.975616 78.925316,288.988770 
	C78.282082,291.810059 77.638832,294.631348 77.119934,296.907288 
	C73.456955,296.907288 70.156517,296.907288 66.112549,296.684021 
	C63.888451,296.774933 62.407871,297.089111 60.927292,297.403290 
	C60.755600,297.296478 60.583912,297.189667 59.958199,296.985260 
	C59.504166,296.887634 59.171600,296.895752 59.171600,296.895752 
	C58.964664,296.869080 58.757725,296.842407 57.938263,296.636719 
	C55.882030,296.848694 54.438320,297.239685 52.994614,297.630676 
	C52.814079,297.476898 52.633553,297.323090 51.977417,297.021301 
	C51.501808,296.873322 51.198353,296.881439 51.198353,296.881439 
	C50.983486,296.852417 50.768620,296.823425 49.882839,296.607971 
	C45.461456,295.966644 41.710987,295.511780 37.960518,295.056885 
	C37.960518,295.056885 37.896908,294.651886 37.700665,294.162415 
	C33.827103,290.405945 33.562248,293.416687 33.101177,296.066467 
	C33.101177,296.066467 33.063545,296.052887 32.791111,296.167664 
	C32.009300,296.838318 31.499926,297.394165 30.990553,297.950012 
M34.971214,278.814697 
	C34.068745,277.822510 32.698181,275.827271 32.337311,275.995667 
	C29.247156,277.437744 26.339838,279.271637 23.377861,280.988373 
	C23.473021,281.509644 23.568180,282.030945 23.663340,282.552216 
	C25.622965,283.078613 27.559101,283.906586 29.547665,284.061462 
	C32.614567,284.300293 36.330963,284.811096 34.971214,278.814697 
z"/>
<path fill="#5E2329" opacity="1.000000" stroke="none" 
	d="
M89.979401,303.826294 
	C92.130974,300.552734 94.475700,297.384216 96.340485,293.954742 
	C97.102455,292.553467 97.065941,290.570862 96.951561,288.882599 
	C96.842682,287.275696 96.180397,285.701538 95.724144,284.123749 
	C93.608849,276.808655 90.183449,269.118500 102.348457,265.778503 
	C105.783943,267.713928 106.005814,272.193787 106.920265,276.315277 
	C107.392265,278.442657 107.791451,282.311890 108.501045,282.377136 
	C112.697235,282.763153 116.987289,282.371735 121.205048,281.887360 
	C121.606651,281.841248 122.428375,278.844574 121.871040,278.073059 
	C115.902031,269.810242 120.797546,264.847870 127.554802,259.830383 
	C132.294708,270.530518 134.480377,281.172211 129.678192,292.833954 
	C128.800644,294.040619 128.328781,294.857361 127.856895,295.674103 
	C127.856888,295.674103 127.761833,295.771423 127.272522,295.838074 
	C121.010132,295.929962 115.232323,295.840118 109.468025,296.077881 
	C108.321350,296.125214 107.226425,297.426910 106.107635,298.150146 
	C104.152412,305.794647 99.933968,311.927673 93.208221,315.990265 
	C91.862045,316.803375 89.364708,315.710693 86.994263,315.091492 
	C86.095329,314.450836 85.600311,314.215424 85.105293,313.980042 
	C84.907051,313.905334 84.708809,313.830627 84.133293,313.308044 
	C83.452591,311.506927 83.149155,310.153687 82.845718,308.800415 
	C82.845718,308.800415 82.886795,308.857727 83.217453,308.827576 
	C84.998398,307.485931 86.448692,306.174408 87.899002,304.862885 
	C87.899002,304.862885 87.966698,304.880127 88.243866,304.839050 
	C89.007156,304.474060 89.493279,304.150177 89.979401,303.826294 
z"/>
<path fill="#5C1F25" opacity="1.000000" stroke="none" 
	d="
M251.072083,291.019379 
	C248.651321,293.862091 246.230560,296.704803 242.827469,300.701050 
	C241.757736,292.528107 240.585129,285.816315 240.059128,279.054260 
	C239.134430,267.166809 238.539688,255.251617 237.991379,243.339539 
	C237.920853,241.807419 238.478363,239.576752 239.560303,238.787704 
	C242.710159,236.490585 246.200821,234.602020 249.749725,232.970718 
	C250.317368,232.709808 252.795837,234.569962 252.823364,235.496155 
	C253.020996,242.143570 252.813431,248.803055 252.539948,256.302277 
	C252.209824,263.884338 252.146240,270.625275 251.913574,277.360443 
	C251.756165,281.917664 251.360962,286.466675 251.072083,291.019379 
z"/>
<path fill="#5D2429" opacity="1.000000" stroke="none" 
	d="
M47.639793,152.350891 
	C48.867687,151.064316 49.862621,149.326370 50.953243,149.264084 
	C58.551346,148.830185 66.415611,147.474869 73.713661,148.891815 
	C81.477287,150.399185 88.789917,154.461243 96.140976,157.760941 
	C99.657639,159.339462 102.949028,161.544113 106.054764,163.852264 
	C107.286034,164.767334 107.736984,166.732376 108.931786,168.936050 
	C87.273430,160.760025 66.264580,156.377808 43.347221,164.089523 
	C45.104900,159.200714 46.278008,155.937851 47.639793,152.350891 
z"/>
<path fill="#5E2429" opacity="1.000000" stroke="none" 
	d="
M176.944824,154.890289 
	C181.211761,153.775009 185.572220,153.594513 188.948547,151.679199 
	C197.008789,147.106857 205.520279,149.658096 213.805344,149.070190 
	C218.259796,148.754105 223.773911,155.552246 222.573166,159.828079 
	C222.306030,160.779343 220.026016,161.786270 218.721558,161.725204 
	C209.806351,161.307907 200.899841,160.070251 191.998871,160.141464 
	C180.409256,160.234146 169.860321,164.565750 159.786926,170.073730 
	C158.458145,170.800278 156.878815,171.068558 155.097519,170.959167 
	C161.263458,164.203766 168.331192,158.822632 176.944824,154.890289 
z"/>
<path fill="#5D252A" opacity="1.000000" stroke="none" 
	d="
M159.007843,213.314850 
	C160.709442,221.480988 157.635742,228.187607 154.576813,234.966232 
	C150.811035,243.311249 141.564087,245.161285 133.838120,238.964844 
	C132.876358,238.193481 131.824539,237.534409 130.284424,236.450134 
	C134.107758,234.707672 137.707520,233.132217 141.251495,231.439987 
	C152.763870,225.942856 152.737015,213.084412 145.055298,203.340652 
	C147.964310,200.221924 150.911880,197.061859 153.914444,193.842850 
	C159.496567,199.711014 158.496323,206.488800 159.007843,213.314850 
z"/>
<path fill="#5A2429" opacity="1.000000" stroke="none" 
	d="
M142.667435,309.136871 
	C142.531921,310.187195 142.281372,311.539978 141.471085,312.153534 
	C138.777695,314.192963 139.298660,316.301178 141.015015,318.942017 
	C139.402161,318.713165 137.315353,318.579681 136.000443,317.503265 
	C132.865677,314.937073 130.201782,314.596497 127.322723,318.730560 
	C125.486046,316.601379 123.952248,314.823303 122.054764,312.623657 
	C120.940758,313.573761 119.422394,314.349030 118.687958,315.588745 
	C116.082230,319.987244 113.715904,318.794708 111.162361,315.632080 
	C109.854340,314.012024 108.426880,312.488403 107.054848,310.922852 
	C116.567284,302.691498 114.534927,302.341339 123.072960,308.294800 
	C123.730354,307.442444 124.367935,306.547455 125.075157,305.711395 
	C127.368332,303.000366 129.710632,302.055084 132.172516,305.550812 
	C132.646042,306.223175 133.383209,306.725006 133.790451,307.426422 
	C136.009048,311.247681 138.899460,311.397766 142.667435,309.136871 
z"/>
<path fill="#5D292E" opacity="1.000000" stroke="none" 
	d="
M82.436409,308.811462 
	C83.149155,310.153687 83.452591,311.506927 83.843468,313.177734 
	C81.874115,312.800049 79.817314,312.104858 77.244759,311.235352 
	C74.899132,313.273193 72.077164,315.724884 68.612358,318.735077 
	C67.512009,317.314209 66.806190,315.964325 65.708885,315.128296 
	C64.870979,314.489929 63.400497,314.035431 62.450191,314.313934 
	C59.762119,315.101685 56.981525,317.452515 54.646511,317.013153 
	C52.510921,316.611298 50.909489,313.370697 48.862591,311.153503 
	C49.983353,309.856445 51.210800,308.618164 52.226700,307.225586 
	C55.102074,303.284027 57.948788,302.845825 61.996277,306.068024 
	C66.032509,309.281311 66.522957,303.552002 69.768761,302.306396 
	C73.857712,303.488892 75.692635,310.803802 82.436409,308.811462 
z"/>
<path fill="#572327" opacity="1.000000" stroke="none" 
	d="
M50.833618,189.599213 
	C46.492191,193.687515 45.155418,187.901596 41.864429,187.451324 
	C40.323589,188.819931 38.539688,190.404434 36.430023,192.278290 
	C35.610252,191.270203 34.955273,190.525620 34.368317,189.730789 
	C32.996632,187.873306 28.359079,187.015671 31.203962,183.901367 
	C33.146416,181.774948 35.677490,177.736465 40.140675,180.792404 
	C41.240868,181.545715 43.618160,182.152344 44.276894,181.562592 
	C50.028606,176.413208 52.127308,182.229401 56.062965,185.293732 
	C54.203846,186.824066 52.646667,188.105865 50.833618,189.599213 
z"/>
<path fill="#592327" opacity="1.000000" stroke="none" 
	d="
M32.897507,250.063141 
	C31.083973,251.075348 28.851198,251.712433 27.541868,253.175766 
	C24.575054,256.491547 22.422615,254.888733 20.210115,252.550095 
	C18.222126,250.448746 15.282290,248.550659 19.080109,245.342621 
	C21.061045,243.669296 22.602657,241.475891 24.501955,239.338211 
	C28.536848,242.836029 32.153519,246.076630 36.537670,240.755051 
	C36.845173,240.381790 39.286385,241.766373 40.424759,242.687012 
	C37.708572,245.381363 35.303040,247.722244 32.897507,250.063141 
z"/>
<path fill="#5A2329" opacity="1.000000" stroke="none" 
	d="
M96.065704,247.230179 
	C100.097679,246.826584 106.409393,251.449692 105.312286,254.388077 
	C104.226746,257.295532 100.834091,260.788055 98.054115,261.178101 
	C95.646133,261.515961 92.109062,258.318176 90.141457,255.835007 
	C88.607483,253.899109 90.437218,251.754593 92.863014,250.578156 
	C94.068016,249.993744 94.852623,248.542511 96.065704,247.230179 
z"/>
<path fill="#5C272B" opacity="1.000000" stroke="none" 
	d="
M160.248199,262.190552 
	C157.944717,263.924377 155.956741,265.478058 153.751770,267.201324 
	C150.858597,264.040283 148.440353,261.398163 146.533966,259.315308 
	C149.619247,256.344482 152.336441,253.728088 155.291672,250.882492 
	C158.054169,253.429626 163.128799,255.678299 160.248199,262.190552 
z"/>
<path fill="#3D0E11" opacity="1.000000" stroke="none" 
	d="
M79.350639,226.537292 
	C81.088036,225.894867 83.114388,225.061676 85.147797,225.044067 
	C99.110054,224.923187 113.073792,224.973053 127.501511,224.985291 
	C126.581764,225.653961 125.199890,226.864761 123.812996,226.870529 
	C109.090080,226.931747 94.366356,226.801483 79.350639,226.537292 
z"/>
<path fill="#A48A86" opacity="1.000000" stroke="none" 
	d="
M230.386566,289.920471 
	C229.945145,285.361603 229.904465,280.604645 229.881622,274.918152 
	C229.866226,261.690399 229.832977,249.392197 229.799744,237.093979 
	C229.831604,236.619019 229.863480,236.144073 229.862091,234.999084 
	C229.853531,233.908142 229.878220,233.487213 229.902893,233.066299 
	C230.522125,233.985031 231.690399,234.910355 231.679474,235.821518 
	C231.464005,253.789444 231.111725,271.755707 230.386566,289.920471 
z"/>
<path fill="#5A2228" opacity="1.000000" stroke="none" 
	d="
M32.952290,250.406372 
	C35.303040,247.722244 37.708572,245.381363 40.465668,243.028870 
	C40.817230,243.017288 40.920803,243.073227 41.065811,243.383392 
	C41.818130,244.123657 42.425442,244.553757 43.032753,244.983856 
	C43.032749,244.983871 43.001175,245.008545 43.123837,245.160370 
	C43.417042,245.533356 43.605278,245.738281 43.811211,245.926956 
	C44.880928,251.456070 39.001453,251.577332 36.961353,255.583252 
	C35.365826,253.632904 34.186447,252.191238 32.952290,250.406372 
z"/>
<path fill="#9D7D81" opacity="1.000000" stroke="none" 
	d="
M251.472824,290.988403 
	C251.360962,286.466675 251.756165,281.917664 251.913574,277.360443 
	C252.146240,270.625275 252.209824,263.884338 252.498138,256.797363 
	C252.767059,267.329163 252.901978,278.209320 252.950424,289.089874 
	C252.953186,289.710785 252.248825,290.334808 251.472824,290.988403 
z"/>
<path fill="#3D0E11" opacity="1.000000" stroke="none" 
	d="
M52.530903,226.273651 
	C59.906811,225.912766 67.569481,225.660263 75.596130,225.581116 
	C69.866890,226.134537 63.776279,226.569931 57.678699,226.857468 
	C56.069405,226.933350 54.438595,226.552933 52.530903,226.273651 
z"/>
<path fill="#462122" opacity="1.000000" stroke="none" 
	d="
M106.427658,298.048035 
	C107.226425,297.426910 108.321350,296.125214 109.468025,296.077881 
	C115.232323,295.840118 121.010132,295.929962 127.216324,295.876434 
	C126.718086,296.483154 125.806335,297.633026 124.852188,297.669342 
	C118.822594,297.898956 112.783585,297.881683 106.427658,298.048035 
z"/>
<path fill="#4C2022" opacity="1.000000" stroke="none" 
	d="
M79.079300,288.667114 
	C78.942902,285.975616 79.015854,282.961517 78.962669,279.949615 
	C78.908318,276.870850 78.730217,273.794220 78.724121,270.398071 
	C83.687691,276.067078 81.177467,282.212341 79.079300,288.667114 
z"/>
<path fill="#4A1D1F" opacity="1.000000" stroke="none" 
	d="
M162.506577,298.146515 
	C162.648453,297.294281 163.180801,295.594055 163.695511,295.599365 
	C167.714874,295.640930 171.730820,296.010162 175.887146,296.530273 
	C171.647263,297.217712 167.268066,297.653168 162.506577,298.146515 
z"/>
<path fill="#A38484" opacity="1.000000" stroke="none" 
	d="
M196.872818,257.808990 
	C192.081451,258.388336 187.003143,258.703888 181.458282,258.982300 
	C182.386978,258.359802 183.766251,257.325958 185.180542,257.275604 
	C188.974304,257.140564 192.783066,257.426483 196.872818,257.808990 
z"/>
<path fill="#44181B" opacity="1.000000" stroke="none" 
	d="
M37.943886,295.366211 
	C41.710987,295.511780 45.461456,295.966644 49.558254,296.587524 
	C45.799980,297.640381 41.629616,299.257965 37.943886,295.366211 
z"/>
<path fill="#431619" opacity="1.000000" stroke="none" 
	d="
M213.353699,297.066162 
	C216.482285,296.688080 219.897873,296.591583 223.657761,296.691162 
	C220.548264,297.040771 217.094482,297.194305 213.353699,297.066162 
z"/>
<path fill="#5A2429" opacity="1.000000" stroke="none" 
	d="
M149.615631,301.941376 
	C150.153122,304.919647 148.836807,306.690460 145.296936,306.911133 
	C146.370850,305.290924 147.825150,303.656464 149.615631,301.941376 
z"/>
<path fill="#431619" opacity="1.000000" stroke="none" 
	d="
M201.267944,297.359406 
	C203.083679,296.918518 205.195450,296.708923 207.627014,296.665802 
	C205.819199,297.085114 203.691589,297.337891 201.267944,297.359406 
z"/>
<path fill="#44181B" opacity="1.000000" stroke="none" 
	d="
M33.383003,295.909668 
	C33.562248,293.416687 33.827103,290.405945 37.646637,293.964661 
	C36.414181,294.755219 35.039505,295.254028 33.383003,295.909668 
z"/>
<path fill="#431619" opacity="1.000000" stroke="none" 
	d="
M226.209366,297.441711 
	C226.922760,295.926697 227.861542,294.632782 229.050064,293.095001 
	C231.214096,296.163513 229.072525,297.060852 226.209366,297.441711 
z"/>
<path fill="#5D292E" opacity="1.000000" stroke="none" 
	d="
M87.549713,304.884460 
	C86.448692,306.174408 84.998398,307.485931 83.186493,308.844482 
	C84.283401,307.563019 85.741920,306.234528 87.549713,304.884460 
z"/>
<path fill="#44181B" opacity="1.000000" stroke="none" 
	d="
M53.271233,297.809998 
	C54.438320,297.239685 55.882030,296.848694 57.625713,296.620483 
	C56.466404,297.185272 55.007126,297.587280 53.271233,297.809998 
z"/>
<path fill="#5A2429" opacity="1.000000" stroke="none" 
	d="
M152.721527,295.096375 
	C152.780014,296.186676 152.607193,297.455597 152.132767,298.813904 
	C152.050827,297.693878 152.270508,296.484436 152.721527,295.096375 
z"/>
<path fill="#44181B" opacity="1.000000" stroke="none" 
	d="
M61.183449,297.624268 
	C62.407871,297.089111 63.888451,296.774933 65.667824,296.622620 
	C64.457611,297.138062 62.948605,297.491669 61.183449,297.624268 
z"/>
<path fill="#420D13" opacity="1.000000" stroke="none" 
	d="
M71.675461,215.182327 
	C70.536888,215.344025 69.064598,215.425476 67.308304,215.345276 
	C68.463455,215.156433 69.902596,215.129257 71.675461,215.182327 
z"/>
<path fill="#420D13" opacity="1.000000" stroke="none" 
	d="
M64.765396,215.202698 
	C63.662148,215.554810 62.316074,215.826340 60.969997,216.097855 
	C60.925316,215.826706 60.880638,215.555573 60.835957,215.284439 
	C61.688492,215.194305 62.541031,215.104187 63.709175,215.008759 
	C64.190712,215.043015 64.356636,215.082565 64.765396,215.202698 
z"/>
<path fill="#4A1016" opacity="1.000000" stroke="none" 
	d="
M229.589218,233.039719 
	C229.878220,233.487213 229.853531,233.908142 229.803085,234.645798 
	C229.008972,234.765915 228.240601,234.569305 227.249649,234.171722 
	C227.776550,233.651535 228.526047,233.332336 229.589218,233.039719 
z"/>
<path fill="#462122" opacity="1.000000" stroke="none" 
	d="
M128.156998,295.594055 
	C128.328781,294.857361 128.800644,294.040619 129.537827,293.095215 
	C129.354446,293.815674 128.905777,294.664825 128.156998,295.594055 
z"/>
<path fill="#5A2429" opacity="1.000000" stroke="none" 
	d="
M151.618591,298.878479 
	C151.388901,299.551697 150.863220,300.225281 150.029205,301.027466 
	C150.254807,300.396973 150.788712,299.637909 151.618591,298.878479 
z"/>
<path fill="#592327" opacity="1.000000" stroke="none" 
	d="
M42.957279,244.682571 
	C42.425442,244.553757 41.818130,244.123657 41.079845,243.440552 
	C41.593182,243.585464 42.237492,243.983383 42.957279,244.682571 
z"/>
<path fill="#3D0E11" opacity="1.000000" stroke="none" 
	d="
M128.335327,224.937759 
	C128.463547,224.383530 128.902420,223.785583 129.601135,223.069122 
	C129.455948,223.598419 129.050964,224.246231 128.335327,224.937759 
z"/>
<path fill="#44181B" opacity="1.000000" stroke="none" 
	d="
M31.268475,297.868164 
	C31.499926,297.394165 32.009300,296.838318 32.794960,296.187317 
	C32.562962,296.656860 32.054680,297.221588 31.268475,297.868164 
z"/>
<path fill="#420D13" opacity="1.000000" stroke="none" 
	d="
M77.690750,215.239777 
	C77.474945,215.359665 76.916992,215.430710 76.166153,215.395599 
	C76.431709,215.256638 76.890144,215.223785 77.690750,215.239777 
z"/>
<path fill="#5D292E" opacity="1.000000" stroke="none" 
	d="
M85.260147,314.220337 
	C85.600311,314.215424 86.095329,314.450836 86.793839,314.873993 
	C86.469887,314.861389 85.942444,314.661011 85.260147,314.220337 
z"/>
<path fill="#5D292E" opacity="1.000000" stroke="none" 
	d="
M89.684128,303.896729 
	C89.493279,304.150177 89.007156,304.474060 88.234932,304.872803 
	C88.428841,304.620850 88.908852,304.294006 89.684128,303.896729 
z"/>
<path fill="#431619" opacity="1.000000" stroke="none" 
	d="
M224.145981,297.083435 
	C224.067474,296.945740 224.510574,296.952576 224.731873,296.959259 
	C224.953156,296.965942 224.642288,297.302246 224.642288,297.302246 
	C224.642288,297.302246 224.224487,297.221100 224.145981,297.083435 
z"/>
<path fill="#431619" opacity="1.000000" stroke="none" 
	d="
M211.196075,297.029236 
	C211.134033,296.910767 211.483643,296.892670 211.657593,296.894165 
	C211.831558,296.895630 211.608917,297.203400 211.608917,297.203400 
	C211.608917,297.203400 211.258118,297.147705 211.196075,297.029236 
z"/>
<path fill="#3D0E11" opacity="1.000000" stroke="none" 
	d="
M77.207520,225.977310 
	C77.149780,225.855621 77.495811,225.840378 77.667923,225.844391 
	C77.840042,225.848419 77.616440,226.158524 77.616440,226.158524 
	C77.616440,226.158524 77.265251,226.098999 77.207520,225.977310 
z"/>
<path fill="#431619" opacity="1.000000" stroke="none" 
	d="
M209.208557,297.028015 
	C209.148422,296.905273 209.514572,296.900513 209.696747,296.908813 
	C209.878922,296.917145 209.628113,297.217773 209.628113,297.217773 
	C209.628113,297.217773 209.268692,297.150787 209.208557,297.028015 
z"/>
<path fill="#44181B" opacity="1.000000" stroke="none" 
	d="
M59.223503,297.017120 
	C59.171600,296.895752 59.504166,296.887634 59.669388,296.892609 
	C59.834614,296.897583 59.616592,297.202728 59.616592,297.202728 
	C59.616592,297.202728 59.275410,297.138489 59.223503,297.017120 
z"/>
<path fill="#44181B" opacity="1.000000" stroke="none" 
	d="
M51.242138,297.000793 
	C51.198353,296.881439 51.501808,296.873322 51.652245,296.877045 
	C51.802685,296.880768 51.609661,297.183105 51.609661,297.183105 
	C51.609661,297.183105 51.285923,297.120117 51.242138,297.000793 
z"/>
<path fill="#5A2429" opacity="1.000000" stroke="none" 
	d="
M144.730042,307.032715 
	C144.780426,307.207794 144.560379,307.453766 144.122131,307.832794 
	C144.114517,307.701080 144.299744,307.413666 144.730042,307.032715 
z"/>
<path fill="#420D13" opacity="1.000000" stroke="none" 
	d="
M88.774925,215.281830 
	C89.045197,215.300613 88.649376,215.464737 88.649376,215.464737 
	C88.649376,215.464737 88.223175,215.446259 88.094498,215.383179 
	C88.145424,215.301086 88.325035,215.282074 88.774925,215.281830 
z"/>
<path fill="#420D13" opacity="1.000000" stroke="none" 
	d="
M73.848633,214.953217 
	C73.930595,215.079727 73.492645,215.088287 73.274040,215.078247 
	C73.226402,214.735641 73.463486,214.655136 73.848633,214.953217 
z"/>
<path fill="#592327" opacity="1.000000" stroke="none" 
	d="
M43.741982,245.721130 
	C43.605278,245.738281 43.417042,245.533356 43.125942,245.140472 
	C43.278954,245.088562 43.501408,245.270752 43.741982,245.721130 
z"/>
<path fill="#000000" opacity="1.000000" stroke="none" 
	d="
M50.768185,127.243752 
	C52.800858,118.816162 54.833527,110.388580 56.827473,102.121552 
	C73.257713,99.964355 87.215912,106.221748 100.280457,114.813385 
	C106.774353,119.083961 113.105240,123.889778 118.514137,129.426254 
	C122.406036,133.409958 124.859566,138.894974 127.473877,143.958557 
	C128.075974,145.124756 126.997429,147.459808 126.185532,148.987686 
	C124.800102,151.594864 123.013641,153.988937 121.243851,156.705521 
	C118.663712,154.873215 115.771362,152.844910 112.905876,150.779327 
	C104.975899,145.063019 97.018799,139.311584 87.442451,136.671539 
	C79.666908,134.527939 71.757271,132.870789 63.084976,130.970093 
	C59.530518,130.678650 56.734631,130.677277 54.093521,130.037216 
	C52.833424,129.731827 51.867405,128.212967 50.768185,127.243752 
z"/>
<path fill="#000000" opacity="1.000000" stroke="none" 
	d="
M203.072708,131.957718 
	C197.806244,133.098267 192.363235,133.732269 187.312805,135.492645 
	C178.748291,138.477844 170.215927,141.734924 162.087585,145.727707 
	C156.812286,148.319016 152.278259,152.419403 147.481506,155.794800 
	C147.014160,155.583481 146.618805,155.531342 146.443314,155.307144 
	C138.868576,145.630005 138.783676,142.779129 147.649124,132.718353 
	C156.058167,123.175522 165.802567,115.066139 177.287811,109.398140 
	C185.845291,105.175018 194.904999,102.287910 204.427521,101.123718 
	C208.417221,100.635971 211.459518,100.453514 212.200317,106.378723 
	C213.159866,114.053566 215.958389,121.498482 217.523438,129.551804 
	C212.412003,130.693375 207.742355,131.325546 203.072708,131.957718 
z"/>
<path fill="#AF9695" opacity="1.000000" stroke="none" 
	d="
M50.566223,127.504990 
	C51.867405,128.212967 52.833424,129.731827 54.093521,130.037216 
	C56.734631,130.677277 59.530518,130.678650 62.690659,131.001541 
	C58.879154,131.554550 54.639847,132.048325 49.782452,132.614075 
	C50.040604,130.463074 50.202431,129.114655 50.566223,127.504990 
z"/>
<path fill="#AF8D8E" opacity="1.000000" stroke="none" 
	d="
M203.535187,131.963684 
	C207.742355,131.325546 212.412003,130.693375 217.527283,129.945221 
	C217.421448,130.591034 216.892441,131.991821 216.314880,132.012131 
	C212.214706,132.156326 208.104599,132.017990 203.535187,131.963684 
z"/>
<path fill="#000000" opacity="1.000000" stroke="none" 
	d="
M124.236351,105.017738 
	C123.679184,97.590660 129.768906,95.760071 134.071426,91.910141 
	C137.389359,94.701675 140.618240,97.116226 143.414474,99.956673 
	C144.243195,100.798485 144.562775,103.441345 143.897598,104.224884 
	C141.273148,107.316368 138.326263,110.209091 135.107971,112.662666 
	C134.406555,113.197418 131.872147,111.912041 130.569458,110.943665 
	C128.343719,109.289146 126.424377,107.222458 124.236351,105.017738 
z"/>
<path fill="#000000" opacity="1.000000" stroke="none" 
	d="
M197.530304,275.004150 
	C196.001770,276.767426 194.458755,278.190674 192.264893,280.214203 
	C190.335480,277.759521 188.445923,275.355530 186.009842,272.256195 
	C191.132095,271.543030 194.888550,270.693542 197.530304,275.004150 
z"/>
<path fill="#4A1016" opacity="1.000000" stroke="none" 
	d="
M229.628052,237.458771 
	C229.832977,249.392197 229.866226,261.690399 229.839600,274.447296 
	C229.519836,270.314087 229.054779,265.722626 229.045898,261.130249 
	C229.030869,253.361633 229.304245,245.592484 229.628052,237.458771 
z"/>
<path fill="#080404" opacity="1.000000" stroke="none" 
	d="
M47.525299,213.869324 
	C45.492088,214.600983 43.837135,215.489059 42.095821,215.716812 
	C41.083557,215.849213 39.932720,214.922073 38.844246,214.471680 
	C39.399963,213.418015 39.692097,211.915939 40.565422,211.402557 
	C42.474327,210.280457 44.678448,209.660553 47.867306,208.397797 
	C47.867306,210.385666 47.867306,212.067123 47.525299,213.869324 
z"/>
<path fill="#000000" opacity="1.000000" stroke="none" 
	d="
M231.075378,210.334320 
	C231.326935,212.060211 231.472107,213.475006 231.713303,215.825714 
	C227.455582,214.335831 223.842056,213.071365 220.134933,211.774139 
	C223.936127,204.542984 226.677155,204.236526 231.075378,210.334320 
z"/>
<path fill="#000000" opacity="1.000000" stroke="none" 
	d="
M34.999466,279.177002 
	C36.330963,284.811096 32.614567,284.300293 29.547665,284.061462 
	C27.559101,283.906586 25.622965,283.078613 23.663340,282.552216 
	C23.568180,282.030945 23.473021,281.509644 23.377861,280.988373 
	C26.339838,279.271637 29.247156,277.437744 32.337311,275.995667 
	C32.698181,275.827271 34.068745,277.822510 34.999466,279.177002 
z"/>
</svg>