<svg version="1.0" xmlns="http://www.w3.org/2000/svg" width="219.000000ptpx" height="167.000000ptpx" viewBox="0 0 219.000000 167.000000" preserveAspectRatio="xMidYMid meet" transform="rotate(0) scale(1, 1)">

<g transform="translate(0.000000,167.000000) scale(0.100000,-0.100000)" fill="#ffffff" stroke="none">
<path d="M1017 1560 c-14 -11 -28 -33 -32 -49 -8 -36 18 -91 46 -98 23 -6 25&#10;-36 4 -53 -8 -7 -15 -23 -15 -35 0 -17 -22 -37 -97 -86 -106 -70 -184 -141&#10;-227 -205 -25 -39 -56 -128 -56 -164 0 -9 24 -28 58 -44 94 -46 192 -116 282&#10;-203 l85 -82 81 81 c87 86 198 168 283 208 l53 24 -5 42 c-6 60 -47 142 -101&#10;201 -26 29 -99 87 -162 130 -67 45 -114 83 -114 93 0 9 -7 25 -15 36 -20 27&#10;-19 54 3 54 10 0 29 12 43 26 l24 25 -28 -10 c-36 -14 -74 1 -89 34 -9 21 -8&#10;32 5 60 19 40 11 44 -26 15z m113 -733 c34 -32 60 -61 58 -66 -2 -4 -31 -33&#10;-64 -64 l-62 -57 -63 57 c-35 31 -65 60 -67 64 -4 9 120 129 129 126 4 -1 35&#10;-28 69 -60z"/>
<path d="M210 875 c0 -3 -12 -58 -26 -123 -30 -139 -84 -393 -84 -397 0 -1 19&#10;1 43 6 90 17 251 7 367 -23 140 -37 299 -130 419 -246 l74 -72 58 0 57 0 80&#10;77 c141 138 309 224 504 258 90 16 195 18 271 6 27 -5 47 -4 47 1 0 33 -104&#10;506 -113 515 -11 10 -207 -16 -282 -38 -75 -22 -231 -93 -253 -116 -7 -7 -17&#10;-13 -22 -13 -12 0 -126 -95 -169 -140 -18 -19 -53 -61 -76 -92 l-42 -56 -38&#10;51 c-121 164 -315 301 -513 362 -103 32 -302 58 -302 40z m255 -112 c82 -20&#10;176 -58 249 -102 69 -40 216 -182 266 -255 l33 -49 -37 -74 c-32 -66 -38 -73&#10;-56 -63 -10 5 -22 15 -25 20 -9 14 -109 81 -178 118 -119 65 -302 112 -435&#10;112 -65 0 -73 2 -68 18 3 9 10 40 16 67 19 89 52 219 56 227 6 9 107 -1 179&#10;-19z m1380 5 c15 -65 65 -291 65 -294 0 -2 -32 -4 -71 -4 -192 0 -440 -90&#10;-595 -216 -30 -25 -58 -43 -62 -40 -4 2 -22 36 -41 74 l-34 70 32 46 c155 225&#10;407 368 678 385 16 1 24 -6 28 -21z"/>
<path d="M197 249 c-10 -30 -20 -59 -23 -65 -3 -8 19 -7 78 2 105 17 181 17&#10;288 -1 113 -18 141 -26 230 -63 l75 -31 -35 30 c-62 52 -169 111 -258 141 -71&#10;24 -110 31 -212 35 l-125 6 -18 -54z"/>
<path d="M1700 293 c-60 -7 -172 -43 -245 -80 -71 -35 -160 -101 -151 -111 3&#10;-2 11 0 18 6 30 24 200 70 307 82 97 12 128 12 217 -1 67 -9 103 -11 100 -4&#10;-3 5 -13 34 -22 63 l-18 52 -85 -2 c-47 0 -102 -3 -121 -5z"/>
</g>
</svg>