<svg version="1.1" xmlns="http://www.w3.org/2000/svg" width="300px" height="685px" transform="rotate(0) scale(1, 1)">
<path d="M0 0 C7.14016834 1.02002405 13.61278596 2.75174483 20.5 4.8125 C21.47425934 5.10386841 21.47425934 5.10386841 22.46820068 5.40112305 C60.88952922 16.97295401 98.96612648 33.72303467 133 55 C133.57218262 55.35304199 134.14436523 55.70608398 134.73388672 56.06982422 C154.65292008 68.38975493 173.59984638 82.1856383 190.85546875 98.0390625 C192.80634883 99.82292734 194.79748048 101.53952794 196.8125 103.25 C205.54986648 110.89077393 213.66089039 119.19304161 220.8515625 128.3046875 C222.26190545 130.07402683 223.71461251 131.81056755 225.2109375 133.5078125 C238.6955993 148.87405501 249.71582479 166.82431092 259 185 C259.43618652 185.84788086 259.87237305 186.69576172 260.32177734 187.56933594 C282.38456215 230.88153099 294.68180633 278.4245634 296 327 C296.061875 328.75957031 296.061875 328.75957031 296.125 330.5546875 C297.82444162 422.53696519 258.70458069 508.48827107 195.97265625 574.12109375 C191.85012939 578.31840568 187.47833452 582.18799207 183 586 C182.17242187 586.71671875 181.34484375 587.4334375 180.4921875 588.171875 C150.74369488 613.52852888 116.7257195 632.73630758 80 646 C79.12811035 646.31807617 78.2562207 646.63615234 77.35791016 646.96386719 C59.04516311 653.57593998 40.23913633 658.07992709 21.0625 661.375 C20.09852295 661.54281982 19.1345459 661.71063965 18.14135742 661.88354492 C17.21943604 662.03283447 16.29751465 662.18212402 15.34765625 662.3359375 C14.15668335 662.53002197 14.15668335 662.53002197 12.94165039 662.72802734 C8.64513881 663.12526478 4.31483596 663 0 663 C0 444.21 0 225.42 0 0 Z " fill="#660022" transform="translate(0,12)"/>
</svg>